<?xml version="1.0" encoding="utf-8"?>
<!-- Generator: Adobe Illustrator 25.2.1, SVG Export Plug-In . SVG Version: 6.00 Build 0)  -->
<svg version="1.1" id="Calque_1" xmlns="http://www.w3.org/2000/svg" xmlns:xlink="http://www.w3.org/1999/xlink" x="0px" y="0px"
	 viewBox="0 0 16 16" style="enable-background:new 0 0 16 16;" xml:space="preserve">
<style type="text/css">
	.st0{fill-rule:evenodd;clip-rule:evenodd;fill:#FFB475;}
</style>
<path class="st0" d="M6,0.5C6-0.3,6.7-1,7.5-1h1C9.3-1,10-0.3,10,0.5v1C10,2.4,9.3,3,8.5,3v1H14c0.3,0,0.5,0.2,0.5,0.5v1
	C14.5,5.8,14.3,6,14,6s-0.5-0.2-0.5-0.5V5h-5v0.5C8.5,5.8,8.3,6,8,6C7.7,6,7.5,5.8,7.5,5.5V5h-5v0.5C2.5,5.8,2.3,6,2,6
	S1.5,5.8,1.5,5.5v-1C1.5,4.3,1.7,4,2,4h5.5V3C6.7,3,6,2.4,6,1.5V0.5z M0,8.5C0,7.7,0.7,7,1.5,7h1C3.3,7,4,7.7,4,8.5v1
	C4,10.4,3.3,11,2.5,11h-1C0.7,11,0,10.4,0,9.5V8.5z M6,8.5C6,7.7,6.7,7,7.5,7h1C9.3,7,10,7.7,10,8.5v1c0,0.8-0.7,1.5-1.5,1.5h-1
	C6.7,11,6,10.4,6,9.5V8.5z M12,8.5C12,7.7,12.7,7,13.5,7h1C15.3,7,16,7.7,16,8.5v1c0,0.8-0.7,1.5-1.5,1.5h-1c-0.8,0-1.5-0.7-1.5-1.5
	V8.5z"/>
</svg>
