<?xml version="1.0" encoding="utf-8"?>
<!-- Generator: Adobe Illustrator 25.2.1, SVG Export Plug-In . SVG Version: 6.00 Build 0)  -->
<svg version="1.1" id="Calque_1" xmlns="http://www.w3.org/2000/svg" xmlns:xlink="http://www.w3.org/1999/xlink" x="0px" y="0px"
	 viewBox="0 0 16 16" style="enable-background:new 0 0 16 16;" xml:space="preserve">
<style type="text/css">
	.st0{fill:#FFB475;}
</style>
<path class="st0" d="M0,6.8c0-4.4,3.6-8,8-8s8,3.6,8,8s-3.6,8-8,8S0,11.2,0,6.8z M7.5-0.1C6.8,0.1,6.2,0.7,5.6,1.7
	C5.4,2.1,5.3,2.4,5.1,2.8h2.4C7.5,2.8,7.5-0.1,7.5-0.1z M4.1,2.8c0.2-0.5,0.4-1,0.6-1.5c0.2-0.3,0.4-0.6,0.6-0.9
	C4.1,0.8,3,1.7,2.3,2.8H4.1z M3.5,6.3c0-0.9,0.1-1.7,0.3-2.5H1.7C1.3,4.6,1.1,5.4,1,6.3C1,6.3,3.5,6.3,3.5,6.3z M4.8,3.8
	C4.7,4.6,4.5,5.4,4.5,6.3h3V3.8H4.8z M8.5,3.8v2.5h3c0-0.8-0.1-1.7-0.3-2.5H8.5z M4.5,7.3c0,0.8,0.1,1.7,0.3,2.5h2.7V7.3H4.5z
	 M8.5,7.3v2.5h2.7c0.2-0.8,0.3-1.6,0.3-2.5H8.5z M5.1,10.8c0.1,0.4,0.3,0.7,0.5,1.1c0.6,1,1.2,1.6,1.9,1.9v-2.9H5.1z M5.3,13.3
	c-0.2-0.3-0.4-0.6-0.6-0.9c-0.3-0.5-0.5-1-0.6-1.5H2.3C3,11.9,4.1,12.7,5.3,13.3z M3.8,9.8C3.6,9,3.5,8.1,3.5,7.3H1
	C1.1,8.2,1.3,9,1.7,9.8H3.8z M10.7,13.3c1.2-0.5,2.3-1.4,3.1-2.5h-1.8c-0.2,0.5-0.4,1-0.6,1.5C11.1,12.6,10.9,13,10.7,13.3z
	 M8.5,10.8v2.9c0.7-0.2,1.3-0.8,1.9-1.9c0.2-0.3,0.3-0.7,0.5-1.1C10.9,10.8,8.5,10.8,8.5,10.8z M12.2,9.8h2.1
	C14.7,9,14.9,8.2,15,7.3h-2.5C12.5,8.1,12.4,9,12.2,9.8z M15,6.3c-0.1-0.9-0.3-1.7-0.7-2.5h-2.1c0.2,0.8,0.3,1.6,0.3,2.5H15z
	 M11.3,1.2c0.2,0.5,0.5,1,0.6,1.5h1.8c-0.8-1.1-1.8-2-3.1-2.5C10.9,0.6,11.1,0.9,11.3,1.2z M10.9,2.8c-0.1-0.4-0.3-0.7-0.5-1.1
	c-0.6-1-1.2-1.7-1.9-1.9v2.9H10.9z"/>
</svg>
