<?xml version="1.0" encoding="utf-8"?>
<!-- Generator: Adobe Illustrator 25.2.1, SVG Export Plug-In . SVG Version: 6.00 Build 0)  -->
<svg version="1.1" id="Calque_1" xmlns="http://www.w3.org/2000/svg" xmlns:xlink="http://www.w3.org/1999/xlink" x="0px" y="0px"
	 viewBox="0 0 16 16" style="enable-background:new 0 0 16 16;" xml:space="preserve">
<style type="text/css">
	.st0{fill-rule:evenodd;clip-rule:evenodd;fill:#FFB475;}
</style>
<path class="st0" d="M8,1.1l6,6v4.2c0,0.8-0.7,1.5-1.5,1.5h-9c-0.8,0-1.5-0.7-1.5-1.5V7.1C2,7.1,8,1.1,8,1.1z M13,0.3v3.5l-2-2V0.3
	c0-0.3,0.2-0.5,0.5-0.5h1C12.8-0.2,13,0,13,0.3z"/>
<path class="st0" d="M7.3-0.7c0.4-0.4,1-0.4,1.4,0L15.4,6c0.2,0.2,0.2,0.5,0,0.7s-0.5,0.2-0.7,0L8,0L1.4,6.7c-0.2,0.2-0.5,0.2-0.7,0
	S0.5,6.1,0.6,6L7.3-0.7z"/>
</svg>
