<?xml version="1.0" encoding="utf-8"?>
<!-- Generator: Adobe Illustrator 25.2.1, SVG Export Plug-In . SVG Version: 6.00 Build 0)  -->
<svg version="1.1" id="Calque_1" xmlns="http://www.w3.org/2000/svg" xmlns:xlink="http://www.w3.org/1999/xlink" x="0px" y="0px"
	 viewBox="0 0 16 16" style="enable-background:new 0 0 16 16;" xml:space="preserve">
<style type="text/css">
	.st0{fill:#FFB475;}
	.st1{fill-rule:evenodd;clip-rule:evenodd;fill:#FFB475;}
</style>
<path class="st0" d="M7,11.7c0,0-1,0-1-1s1-4,5-4s5,3,5,4s-1,1-1,1H7z M11,5.7c1.7,0,3-1.3,3-3s-1.3-3-3-3S8,1,8,2.7S9.3,5.7,11,5.7
	z"/>
<path class="st1" d="M5.2,11.7C5.1,11.4,5,11,5,10.7c0-1.4,0.7-2.8,1.9-3.7C6.3,6.8,5.7,6.7,5,6.7c-4,0-5,3-5,4s1,1,1,1H5.2z"/>
<path class="st0" d="M4.5,5.7C5.9,5.7,7,4.5,7,3.2S5.9,0.7,4.5,0.7S2,1.8,2,3.2S3.1,5.7,4.5,5.7z"/>
</svg>
