<?xml version="1.0" encoding="utf-8"?>
<!-- Generator: Adobe Illustrator 25.2.1, SVG Export Plug-In . SVG Version: 6.00 Build 0)  -->
<svg version="1.1" id="Calque_1" xmlns="http://www.w3.org/2000/svg" xmlns:xlink="http://www.w3.org/1999/xlink" x="0px" y="0px"
	 viewBox="0 0 16 16" style="enable-background:new 0 0 16 16;" xml:space="preserve">
<style type="text/css">
	.st0{fill:#FFB475;}
	.st1{fill-rule:evenodd;clip-rule:evenodd;fill:#FFB475;}
</style>
<path class="st0" d="M11,5.2c0,1.7-1.3,3-3,3s-3-1.3-3-3s1.3-3,3-3S11,3.6,11,5.2z"/>
<path class="st1" d="M0,7.2c0-4.4,3.6-8,8-8s8,3.6,8,8s-3.6,8-8,8S0,11.7,0,7.2z M8,0.2c-3.9,0-7,3.1-7,7c0,1.6,0.5,3.1,1.5,4.4
	C3.2,10.5,4.8,9.2,8,9.2s4.8,1.2,5.5,2.4c2.4-3,1.9-7.4-1.1-9.8C11.1,0.8,9.6,0.2,8,0.2z"/>
</svg>
